<svg viewBox="0 0 512.00001 512.00001" xmlns="http://www.w3.org/2000/svg"><path d="m456.832031 112.464844h-160.664062c-8.285157 0-15 6.71875-15 15h-50.332031c0-8.28125-6.714844-15-15-15h-160.667969c-30.417969 0-55.167969 24.75-55.167969 55.167968v289.199219c0 30.421875 24.75 55.167969 55.167969 55.167969h401.664062c30.417969 0 55.167969-24.746094 55.167969-55.167969v-289.199219c0-30.417968-24.75-55.167968-55.167969-55.167968zm0 0" fill="#fdf3f4"/><path d="m456.832031 112.464844h-160.664062c-8.285157 0-15 6.71875-15 15h-25.167969v384.535156h200.832031c30.417969 0 55.167969-24.746094 55.167969-55.167969v-289.199219c0-30.417968-24.75-55.167968-55.167969-55.167968zm0 0" fill="#daecf0"/><path d="m155.582031 297.234375c-41.492187 0-75.25 33.757813-75.25 75.25v20.082031c0 8.28125 6.71875 15 15 15h120.5c8.285157 0 15-6.71875 15-15v-20.082031c0-41.492187-33.753906-75.25-75.25-75.25zm0 0" fill="#00cd77"/><path d="m155.582031 297.230469v110.335937h60.25c8.285157 0 15-6.71875 15-15v-20.082031c0-41.496094-33.757812-75.25-75.25-75.253906zm0 0" fill="#019a57"/><g fill="#013f68"><path d="m416.667969 407.566406h-120.5c-8.285157 0-15-6.71875-15-15 0-8.285156 6.714843-15 15-15h120.5c8.28125 0 15 6.714844 15 15s-6.71875 15-15 15zm0 0"/><path d="m416.667969 327.234375h-120.5c-8.285157 0-15-6.71875-15-15 0-8.285156 6.714843-15 15-15h120.5c8.28125 0 15 6.714844 15 15s-6.71875 15-15 15zm0 0"/><path d="m416.667969 246.898438h-120.5c-8.285157 0-15-6.714844-15-15 0-8.285157 6.714843-15 15-15h120.5c8.28125 0 15 6.714843 15 15 0 8.285156-6.71875 15-15 15zm0 0"/></g><path d="m296.167969 0h-80.335938c-8.28125 0-15 6.714844-15 15v112.464844c0 30.421875 24.75 55.167968 55.167969 55.167968s55.167969-24.746093 55.167969-55.167968v-112.464844c0-8.285156-6.71875-15-15-15zm0 0" fill="#27d9f7"/><path d="m155.582031 216.898438c-30.417969 0-55.164062 24.746093-55.164062 55.167968 0 30.417969 24.746093 55.167969 55.164062 55.167969 30.421875 0 55.167969-24.75 55.167969-55.167969 0-30.417968-24.746094-55.167968-55.167969-55.167968zm0 0" fill="#f5a86c"/><path d="m210.75 272.066406c0-30.417968-24.75-55.167968-55.167969-55.167968v110.332031c30.417969 0 55.167969-24.746094 55.167969-55.164063zm0 0" fill="#e99958"/><path d="m296.167969 0h-40.167969v182.632812c30.417969 0 55.167969-24.746093 55.167969-55.167968v-112.464844c0-8.285156-6.71875-15-15-15zm0 0" fill="#00abde"/></svg>